<svg width="48" height="48" viewBox="0 0 48 48" fill="none" xmlns="http://www.w3.org/2000/svg">
<path d="M40.1161 17.5625C40.6022 17.5625 41 17.1723 41 16.6953V13.8047C41 13.3277 40.6022 12.9375 40.1161 12.9375H38.6429V9.46875C38.6429 7.55371 37.0592 6 35.1071 6H11.5357C9.58371 6 8 7.55371 8 9.46875V39.5312C8 41.4463 9.58371 43 11.5357 43H35.1071C37.0592 43 38.6429 41.4463 38.6429 39.5312V36.0625H40.1161C40.6022 36.0625 41 35.6723 41 35.1953V32.3047C41 31.8277 40.6022 31.4375 40.1161 31.4375H38.6429V26.8125H40.1161C40.6022 26.8125 41 26.4223 41 25.9453V23.0547C41 22.5777 40.6022 22.1875 40.1161 22.1875H38.6429V17.5625H40.1161ZM35.1071 39.5312H11.5357V9.46875H35.1071V39.5312ZM23.3214 24.5C25.9217 24.5 28.0357 22.426 28.0357 19.875C28.0357 17.324 25.9217 15.25 23.3214 15.25C20.7212 15.25 18.6071 17.324 18.6071 19.875C18.6071 22.426 20.7212 24.5 23.3214 24.5ZM16.7214 33.75H29.9214C30.8348 33.75 31.5714 33.1285 31.5714 32.3625V30.975C31.5714 28.677 29.3542 26.8125 26.6214 26.8125C25.8259 26.8125 25.244 27.3906 23.3214 27.3906C21.34 27.3906 20.8612 26.8125 20.0214 26.8125C17.2886 26.8125 15.0714 28.677 15.0714 30.975V32.3625C15.0714 33.1285 15.808 33.75 16.7214 33.75Z" fill="#004A98"/>
</svg>
