<svg width="48" height="48" viewBox="0 0 48 48" fill="none" xmlns="http://www.w3.org/2000/svg">
<path d="M31.6464 29.1585L24.1932 37.1703L16.7401 29.1585C11.1542 29.4189 6.69324 34.3317 6.69324 40.3951V41.2013C6.69324 43.4268 8.37292 45.2324 10.4432 45.2324H37.9432C40.0135 45.2324 41.6932 43.4268 41.6932 41.2013V40.3951C41.6932 34.3317 37.2323 29.4189 31.6464 29.1585ZM7.75574 8.93609L8.25574 9.06206V13.9665C7.70886 14.3192 7.31824 14.9323 7.31824 15.6713C7.31824 16.3767 7.67761 16.9646 8.18542 17.3257L6.96667 22.5577C6.83386 23.1371 7.13074 23.7334 7.56042 23.7334H10.826C11.2557 23.7334 11.5526 23.1371 11.4198 22.5577L10.201 17.3257C10.7089 16.9646 11.0682 16.3767 11.0682 15.6713C11.0682 14.9323 10.6776 14.3192 10.1307 13.9665V9.54914L15.287 10.8844C14.6151 12.3289 14.1932 13.9413 14.1932 15.6713C14.1932 21.6087 18.6698 26.4208 24.1932 26.4208C29.7167 26.4208 34.1932 21.6087 34.1932 15.6713C34.1932 13.9413 33.7792 12.3289 33.0995 10.8844L40.6229 8.93609C42.0448 8.56657 42.0448 6.66022 40.6229 6.29071L25.7479 2.42761C24.7323 2.16728 23.662 2.16728 22.6464 2.42761L7.75574 6.28231C6.34167 6.65182 6.34167 8.56657 7.75574 8.93609Z" fill="#004A98"/>
</svg>
