<svg width="48" height="48" viewBox="0 0 48 48" fill="none" xmlns="http://www.w3.org/2000/svg">
<path d="M8 13.266C8.28 13.154 8.616 13.03 9.006 12.904C10.9448 12.2927 12.9671 11.9877 15 12C17.0329 11.9877 19.0552 12.2927 20.994 12.904C21.384 13.03 21.72 13.154 22 13.266V35.026C19.7314 34.3347 17.3716 33.9888 15 34C12.08 34 9.702 34.496 8 35.026V13.266ZM24 9.77C23.4199 9.51509 22.8271 9.29013 22.224 9.096C19.8877 8.35687 17.4504 7.98708 15 8C11.948 8 9.49 8.542 7.776 9.096C7.0936 9.31475 6.42504 9.57456 5.774 9.874C5.532 9.98591 5.29387 10.106 5.06 10.234L5.01 10.262L4.992 10.272L4.986 10.276C4.982 10.28 4.49 10.57 4.98 10.28C4.68145 10.457 4.4341 10.7087 4.26227 11.0103C4.09045 11.3118 4.00006 11.6529 4 12V38C4.00006 38.353 4.09356 38.6997 4.27098 39.0049C4.44841 39.3101 4.70346 39.5629 5.0102 39.7376C5.31695 39.9123 5.66447 40.0027 6.01747 39.9996C6.37046 39.9965 6.71635 39.9 7.02 39.72L7.01 39.726L7.016 39.724L7.018 39.722L7.092 39.682C7.166 39.642 7.288 39.582 7.456 39.502C7.796 39.346 8.316 39.126 9.006 38.902C10.9449 38.2914 12.9672 37.9871 15 38C17.0328 37.9871 19.0551 38.2914 20.994 38.902C21.5223 39.0707 22.0399 39.271 22.544 39.502C22.695 39.572 22.8437 39.6467 22.99 39.726M22.99 39.726L22.984 39.724L22.982 39.722C23.61 40.092 24.39 40.092 25.018 39.722L25.092 39.682C25.166 39.642 25.288 39.582 25.456 39.502C25.9601 39.271 26.4777 39.0707 27.006 38.902C28.9449 38.2914 30.9672 37.9871 33 38C35.0328 37.9871 37.0551 38.2914 38.994 38.902C39.5223 39.0707 40.0399 39.271 40.544 39.502C40.6922 39.5708 40.8383 39.6442 40.982 39.722C41.2857 39.9016 41.6316 39.9977 41.9845 40.0004C42.3374 40.0031 42.6847 39.9125 42.9912 39.7376C43.2977 39.5627 43.5524 39.3098 43.7296 39.0047C43.9068 38.6995 44.0001 38.3529 44 38V12C43.9999 11.6529 43.9096 11.3118 43.7377 11.0103C43.5659 10.7087 43.3186 10.457 43.02 10.28L43.016 10.278L43.008 10.272L42.988 10.262L42.94 10.234C42.7061 10.1059 42.468 9.98588 42.226 9.874C41.5756 9.57467 40.9077 9.31486 40.226 9.096C37.8891 8.35667 35.451 7.98688 33 8C29.95 8 27.49 8.542 25.776 9.096C25.1727 9.28964 24.5799 9.51461 24 9.77M40 13.266V35.026C37.7314 34.3347 35.3716 33.9888 33 34C30.08 34 27.702 34.496 26 35.026V13.266C26.28 13.154 26.616 13.03 27.006 12.904C28.9448 12.2927 30.9671 11.9877 33 12C35.0329 11.9877 37.0552 12.2927 38.994 12.904C39.384 13.03 39.72 13.154 40 13.266ZM40.98 13.722L40.99 13.726H40.988L40.98 13.722ZM40.982 39.722L40.988 39.726L40.984 39.722" fill="#004A98"/>
</svg>
