<svg width="66" height="65" viewBox="0 0 66 65" fill="none" xmlns="http://www.w3.org/2000/svg">
<path d="M6.16699 13.5417C6.16699 12.1051 6.73767 10.7273 7.7535 9.7115C8.76932 8.69568 10.1471 8.125 11.5837 8.125H54.917C56.3536 8.125 57.7313 8.69568 58.7472 9.7115C59.763 10.7273 60.3337 12.1051 60.3337 13.5417V43.3333C60.3337 44.7699 59.763 46.1477 58.7472 47.1635C57.7313 48.1793 56.3536 48.75 54.917 48.75H35.9587V54.1667H44.0837C44.802 54.1667 45.4908 54.452 45.9987 54.9599C46.5067 55.4678 46.792 56.1567 46.792 56.875C46.792 57.5933 46.5067 58.2822 45.9987 58.7901C45.4908 59.298 44.802 59.5833 44.0837 59.5833H22.417C21.6987 59.5833 21.0098 59.298 20.5019 58.7901C19.994 58.2822 19.7087 57.5933 19.7087 56.875C19.7087 56.1567 19.994 55.4678 20.5019 54.9599C21.0098 54.452 21.6987 54.1667 22.417 54.1667H30.542V48.75H11.5837C10.1471 48.75 8.76932 48.1793 7.7535 47.1635C6.73767 46.1477 6.16699 44.7699 6.16699 43.3333V13.5417ZM54.917 43.3333V13.5417H11.5837V43.3333H54.917Z" fill="#004A98"/>
</svg>
