<svg width="48" height="48" viewBox="0 0 48 48" fill="none" xmlns="http://www.w3.org/2000/svg">
<path d="M40.6936 43.7245C40.6068 43.6861 39.2828 42.4238 37.7513 40.9193C35.3267 38.5374 34.9608 38.1474 34.9201 37.9013C34.8671 37.5816 35.0289 37.2637 35.4412 36.8772L35.6854 36.6482L34.8065 35.7845L33.9276 34.9207L33.3546 35.3236C29.8574 37.7825 24.9173 37.4239 21.7983 34.4848C18.0781 30.979 18.0079 25.2453 21.6417 21.6843C25.2909 18.1081 31.1706 18.1938 34.7349 21.8752C36.3717 23.5656 37.1985 25.6072 37.207 27.9789C37.214 29.9284 36.6654 31.6524 35.5559 33.1679L35.1485 33.7243L36.0295 34.5852L36.9105 35.4461L37.1715 35.1823C37.315 35.0372 37.5478 34.8575 37.6889 34.7831C38.2291 34.498 38.2348 34.5023 41.3254 37.5319L44.1665 40.3169V40.6643C44.1665 41.0112 44.1645 41.0139 42.7828 42.3677C41.6187 43.5085 41.3557 43.7293 41.1253 43.759C40.9747 43.7784 40.7805 43.763 40.6936 43.7245ZM40.1233 38.6743L38.0914 36.682L37.5172 37.2409L36.9431 37.7998L38.975 39.7921L41.0069 41.7845L41.5811 41.2256L42.1553 40.6667L40.1233 38.6743ZM29.604 35.1774C30.0998 35.0795 30.8966 34.8075 31.3799 34.5709C33.2881 33.6368 34.6917 31.9767 35.2899 29.9461C35.506 29.2127 35.5855 27.6426 35.4487 26.8113C35.1899 25.2392 34.4009 23.8035 33.1707 22.6663C31.1866 20.8321 28.3225 20.2247 25.724 21.087C23.4786 21.8321 21.7985 23.4779 21.0302 25.6849C19.8359 29.1158 21.4303 32.9096 24.7498 34.5354C26.1995 35.2454 28.0313 35.4877 29.604 35.1774ZM32.4036 27.7275C32.2573 26.6837 31.8823 25.9196 31.1738 25.2217C30.4421 24.5009 29.3054 23.9954 28.4162 23.9954H28.1833V23.1833V22.3711H28.5333C29.5515 22.3711 31.0578 22.9467 31.9556 23.6789C33.1485 24.6518 33.913 26.069 34.0736 27.6053L34.1248 28.0949H33.2899H32.4551L32.4036 27.7275ZM12.2395 33.084V32.2718H13.0682H13.897V30.6114V28.9511L9.81239 28.9291C5.77808 28.9074 5.72309 28.905 5.34659 28.7347C4.75353 28.4664 4.39582 28.1444 4.1029 27.615L3.83346 27.1281V16.5699V6.0117L4.04615 5.61664C4.36122 5.03141 4.59905 4.79048 5.15149 4.49694L5.64885 4.23267H20.606H35.5632L35.9792 4.41689C36.49 4.64314 37.1083 5.28365 37.3106 5.79625C37.4487 6.14613 37.458 6.58672 37.4791 13.8433L37.5014 21.5202H36.6309H35.7605V13.9412V6.36221L35.5302 6.1096L35.2999 5.85699L20.7639 5.837C7.63223 5.81901 6.20236 5.82896 5.96417 5.93967C5.41756 6.19386 5.45151 5.4898 5.45151 16.5698C5.45151 27.647 5.41775 26.9459 5.96285 27.1994C6.19401 27.3069 6.883 27.3214 11.7581 27.3214H17.291V28.1335V28.9457H16.4212H15.5514L15.5727 30.5894L15.594 32.2331L17.2712 32.254L18.9485 32.2749V33.0855V33.8961H15.594H12.2395L12.2395 33.084ZM9.00336 25.5474C8.34511 25.3505 7.74669 24.8533 7.41472 24.2275C7.24964 23.9163 7.22711 23.7545 7.20195 22.6998L7.17382 21.5202H8.00967H8.84551V22.4949V23.4695L9.11387 23.7324L9.38223 23.9954H10.3767H11.3713V24.8076V25.6198L10.286 25.6127C9.68907 25.6087 9.1119 25.5795 9.00337 25.547L9.00336 25.5474ZM7.18798 19.0451V18.1942H8.01674H8.8455V19.0451V19.8959H8.01674H7.18798V19.0451ZM21.6321 18.1257C20.9524 17.9093 20.3663 17.4191 20.0494 16.8019C19.8141 16.3437 19.7505 15.48 19.9169 15.0016L20.0368 14.6567L18.789 13.4356L17.5411 12.2146L17.1617 12.3187C16.6791 12.4511 16.1664 12.4511 15.6836 12.3186L15.304 12.2145L13.6323 13.8514L11.9606 15.4883L11.3713 14.9069L10.7819 14.3255L12.4565 12.6825L14.131 11.0394L14.0082 10.6527C13.7362 9.79655 14.0425 8.74435 14.7383 8.14415C15.9719 7.08006 17.9613 7.44275 18.6693 8.86081C18.9354 9.39374 19.0043 10.1285 18.8374 10.6527L18.7142 11.0394L19.9658 12.2669L21.2174 13.4944L21.5234 13.3953C21.9311 13.2634 22.6094 13.2628 23.081 13.3943L23.4643 13.5009L24.6907 12.2935L25.917 11.0862L25.8088 10.7149C25.4602 9.51861 26.0065 8.2853 27.1238 7.7464C27.4488 7.58966 27.6286 7.55924 28.2227 7.56047C28.837 7.56153 28.9865 7.58961 29.3278 7.7665C29.8009 8.01173 30.2308 8.4385 30.4822 8.91261C30.6353 9.20126 30.6671 9.3795 30.6682 9.95682C30.6702 10.7692 30.4975 11.2084 29.977 11.7185C29.3449 12.3378 28.27 12.5935 27.4432 12.321L27.1372 12.2202L25.8749 13.4572L24.6126 14.6942L24.7155 14.9941C24.7721 15.159 24.817 15.5234 24.8154 15.8038C24.8103 16.7156 24.2612 17.5555 23.402 17.9672C22.9883 18.1655 22.0271 18.2517 21.6321 18.126L21.6321 18.1257ZM22.6831 16.4835C22.9806 16.3344 23.1282 16.0865 23.13 15.7324C23.134 14.8837 21.9599 14.6236 21.5624 15.3852C21.3937 15.7086 21.4557 16.0257 21.7426 16.3069C22.0295 16.5881 22.3532 16.6489 22.6831 16.4835ZM16.9145 10.6166C17.2196 10.3814 17.3258 10.0621 17.2116 9.72304C17.1089 9.41809 16.7441 9.14514 16.4386 9.14465C15.9353 9.144 15.4886 9.67953 15.5953 10.1558C15.7135 10.6831 16.4806 10.9511 16.9145 10.6166ZM28.7068 10.6316C29.1394 10.2881 29.1707 9.7871 28.7832 9.40732C28.4754 9.10573 28.11 9.05764 27.7865 9.27614C27.4759 9.48595 27.3992 9.62465 27.3965 9.98179C27.3925 10.455 27.7135 10.7694 28.197 10.7669C28.4007 10.7659 28.6064 10.7113 28.7068 10.6316Z" fill="#004A98"/>
</svg>
