<svg width="48" height="48" viewBox="0 0 48 48" fill="none" xmlns="http://www.w3.org/2000/svg">
<path d="M25.0312 44.4375L24.9562 44.4253C24.9667 44.4334 24.9791 44.4388 24.9922 44.4409C25.0053 44.4431 25.0187 44.4419 25.0312 44.4375Z" fill="#004A98"/>
<path d="M42.0844 17.6044C42.063 17.4913 42.0044 17.3885 41.918 17.3125C41.8315 17.2365 41.7222 17.1915 41.6072 17.1847C41.4923 17.1779 41.3784 17.2097 41.2836 17.275C41.1888 17.3404 41.1186 17.4355 41.0841 17.5453C41.051 17.6496 40.9857 17.7407 40.8976 17.8055C40.8095 17.8704 40.7031 17.9056 40.5937 17.9063H39.1434C39.0496 17.9063 38.9575 17.8807 38.8772 17.8322L36.779 16.5741C36.6987 16.5255 36.6066 16.4999 36.5128 16.5H33.1566C33.0544 16.4999 32.9545 16.5302 32.8697 16.5872L28.7306 19.3463C28.6591 19.3939 28.6005 19.4586 28.5603 19.5346C28.52 19.6105 28.4993 19.6953 28.5 19.7813V23.6944C28.4999 23.7882 28.5253 23.8802 28.5735 23.9606C28.6217 24.0411 28.691 24.1069 28.7737 24.1509L34.2009 27.0478C34.2825 27.0917 34.3508 27.1565 34.399 27.2356C34.4471 27.3147 34.4732 27.4052 34.4747 27.4978L34.5 29.7C34.5014 29.7912 34.5269 29.8803 34.5738 29.9585C34.6207 30.0367 34.6874 30.1011 34.7672 30.1453L36.9478 31.3519C37.0286 31.3968 37.096 31.4624 37.1429 31.542C37.1899 31.6216 37.2148 31.7123 37.215 31.8047V36.3609C37.215 36.4605 37.2437 36.558 37.2978 36.6416C37.3518 36.7252 37.4288 36.7915 37.5195 36.8325C37.6103 36.8735 37.7109 36.8874 37.8094 36.8726C37.9079 36.8578 38 36.8149 38.0747 36.7491C38.9541 35.9747 40.215 34.8441 40.3828 34.5853C40.6603 34.1559 40.9206 33.7162 41.1637 33.2663C41.6672 32.3339 42.0936 31.3619 42.4387 30.36C43.6275 26.9184 42.6881 20.7319 42.0844 17.6044Z" fill="#004A98"/>
<path d="M26.85 28.3875L21.1003 24.075C21.0354 24.0263 20.9565 24 20.8753 24H18.1472C18.1005 24 18.0543 23.9909 18.0112 23.973C17.9681 23.9552 17.9289 23.929 17.8959 23.8959L16.6097 22.6097C16.5748 22.5749 16.5335 22.5473 16.4879 22.5284C16.4424 22.5096 16.3936 22.5 16.3444 22.5H11.3578C11.2875 22.5 11.2188 22.4792 11.1604 22.4401C11.102 22.4011 11.0564 22.3456 11.0295 22.2807C11.0026 22.2157 10.9956 22.1443 11.0093 22.0754C11.023 22.0064 11.0569 21.9431 11.1066 21.8934L11.8959 21.1041C11.9289 21.071 11.9681 21.0448 12.0112 21.027C12.0543 21.0091 12.1005 20.9999 12.1472 21H15.1819C15.3453 21 15.5043 20.9466 15.6346 20.8479C15.7649 20.7493 15.8594 20.6107 15.9038 20.4534L16.5497 18.1566C16.5635 18.1072 16.5872 18.0612 16.6195 18.0213C16.6517 17.9815 16.6918 17.9487 16.7372 17.925L19.3125 16.5994C19.3705 16.5694 19.419 16.5241 19.4529 16.4684C19.4868 16.4126 19.5047 16.3487 19.5047 16.2834V15.1116C19.5048 15.0388 19.527 14.9679 19.5684 14.9081L20.9372 12.9375C20.9782 12.8783 21.0365 12.8331 21.1041 12.8081L23.0194 12.0891C23.0871 12.0637 23.1455 12.0182 23.1867 11.9587C23.228 11.8992 23.25 11.8286 23.25 11.7562V10.6875C23.25 10.6289 23.2355 10.5712 23.2079 10.5195C23.1803 10.4678 23.1403 10.4238 23.0916 10.3912L21.1716 9.11436C21.1188 9.07966 21.0578 9.05948 20.9948 9.05586C20.9318 9.05223 20.8689 9.0653 20.8125 9.09374L18.1988 10.4006C18.139 10.4301 18.0721 10.4422 18.0057 10.4354C17.9394 10.4286 17.8763 10.4032 17.8238 10.3622L16.5844 9.38249C16.5421 9.34848 16.5081 9.30525 16.4851 9.25611C16.4621 9.20697 16.4505 9.15321 16.4514 9.09895C16.4524 9.04468 16.4656 8.99134 16.4903 8.94299C16.515 8.89465 16.5504 8.85258 16.5938 8.81999L17.6006 8.07843C17.6462 8.04499 17.6831 8.00114 17.7083 7.95053C17.7335 7.89992 17.7462 7.84402 17.7454 7.7875C17.7446 7.73098 17.7302 7.67547 17.7036 7.62562C17.6769 7.57577 17.6387 7.53301 17.5922 7.50093L16.0238 6.40686C15.9695 6.36864 15.9055 6.34644 15.8392 6.34279C15.7729 6.33914 15.7069 6.3542 15.6488 6.38624C15.0816 6.69655 13.4175 7.6153 12.8269 8.02874C10.0942 9.94511 7.89494 12.5264 6.43688 15.5287C6.26626 15.8812 6.05532 16.2403 6.03469 16.6275C6.01407 17.0147 5.71032 17.8791 5.58376 18.2287C5.56668 18.276 5.55986 18.3264 5.56374 18.3765C5.56762 18.4266 5.58211 18.4753 5.60626 18.5194L8.95219 24.6675C8.9823 24.7234 9.02702 24.77 9.08157 24.8025L12.6019 26.9156C12.6475 26.9428 12.6865 26.9799 12.7159 27.0242C12.7453 27.0686 12.7643 27.1189 12.7716 27.1716L13.4766 32.2847C13.4835 32.3337 13.5004 32.3807 13.5264 32.4228C13.5524 32.4649 13.5868 32.5012 13.6275 32.5294L16.3744 34.4175C16.454 34.4722 16.5094 34.5555 16.5291 34.65L17.9859 41.5687C17.9941 41.6094 18.0097 41.6481 18.0319 41.6831C18.1688 41.9044 18.7144 42.7144 19.3725 42.8344C19.3116 42.8512 19.2572 42.8897 19.1963 42.9075C19.3543 42.9353 19.5108 42.9716 19.665 43.0162C19.8525 43.0669 20.04 43.11 20.2275 43.1503C20.5209 43.2084 20.55 43.2534 20.6906 42.9928C20.8781 42.6441 21.0928 42.5241 21.2531 42.4809C21.3193 42.4657 21.3798 42.4321 21.4277 42.384C21.4757 42.3359 21.509 42.2753 21.5241 42.2091L22.4681 37.8328C22.488 37.7411 22.5415 37.6601 22.6181 37.6059L26.8369 34.6153C26.8859 34.5806 26.9259 34.5347 26.9535 34.4813C26.981 34.428 26.9954 34.3688 26.9953 34.3087V28.6875C26.9959 28.6297 26.983 28.5725 26.9578 28.5205C26.9326 28.4684 26.8957 28.4229 26.85 28.3875Z" fill="#004A98"/>
<path d="M24.5625 4.5C24.5625 4.5 24.2203 4.51969 24.1509 4.52156C23.6428 4.53656 23.1359 4.57156 22.6303 4.62656C20.7871 4.82652 18.982 5.28901 17.2697 6C17.4975 6.1575 17.1056 6.30188 17.1056 6.30188L17.7187 7.5H21L23.25 8.625L25.2187 7.5L24.5625 4.5Z" fill="#004A98"/>
<path d="M33.2091 11.2556L34.7194 9.94313C34.7666 9.9021 34.8029 9.84988 34.8248 9.79125C34.8467 9.73261 34.8536 9.66943 34.8449 9.60744C34.8361 9.54546 34.812 9.48666 34.7747 9.4364C34.7373 9.38614 34.688 9.34601 34.6312 9.31969L32.8678 8.50125C32.7782 8.45947 32.6758 8.45474 32.5827 8.48809C32.4897 8.52145 32.4136 8.5902 32.3709 8.67938L31.6444 10.1991C31.6048 10.2821 31.5972 10.3769 31.623 10.4652C31.6487 10.5535 31.7061 10.6293 31.7841 10.6781L32.7647 11.2913C32.8328 11.3336 32.9128 11.3531 32.9927 11.3466C33.0727 11.3402 33.1485 11.3083 33.2091 11.2556Z" fill="#004A98"/>
<path d="M40.2788 13.1878L39.7322 12.3441C39.7238 12.3309 39.7163 12.3178 39.7088 12.3037C39.6103 12.1022 38.7956 10.4569 38.115 9.81843C37.6041 9.33562 37.4588 9.47437 37.4184 9.58124C37.3954 9.64035 37.3569 9.69216 37.3069 9.73124L34.6031 11.9166C34.5365 11.9704 34.4535 11.9999 34.3678 12H32.9681C32.9189 12 32.8701 12.0096 32.8246 12.0284C32.779 12.0473 32.7377 12.0749 32.7028 12.1097L31.5778 13.2347C31.5429 13.2695 31.5153 13.3109 31.4964 13.3564C31.4775 13.4019 31.4678 13.4507 31.4678 13.5C31.4678 13.5493 31.4775 13.5981 31.4964 13.6436C31.5153 13.6891 31.5429 13.7305 31.5778 13.7653L32.7028 14.8903C32.7377 14.9251 32.779 14.9527 32.8246 14.9715C32.8701 14.9904 32.9189 15 32.9681 15H40.0153C40.0659 15 40.116 14.9898 40.1626 14.97C40.2092 14.9502 40.2512 14.9211 40.2863 14.8846C40.3213 14.8481 40.3486 14.8048 40.3665 14.7575C40.3844 14.7101 40.3925 14.6596 40.3903 14.6091L40.3388 13.3762C40.336 13.3092 40.3153 13.2441 40.2788 13.1878Z" fill="#004A98"/>
<path d="M24 6.75C27.9909 6.74967 31.8584 8.13314 34.9436 10.6647C38.0289 13.1962 40.1408 16.7192 40.9197 20.6334C41.6986 24.5475 41.0962 28.6107 39.2152 32.1305C37.3341 35.6503 34.2909 38.4089 30.6039 39.9365C26.9169 41.464 22.8143 41.6658 18.9951 40.5076C15.176 39.3493 11.8766 36.9027 9.6592 33.5845C7.44177 30.2663 6.44346 26.282 6.83439 22.3103C7.22532 18.3386 8.9813 14.6253 11.8031 11.8031C13.401 10.1961 15.3017 8.92208 17.3953 8.0547C19.489 7.18733 21.7338 6.74387 24 6.75ZM24 3C12.4031 3 3 12.4031 3 24C3 35.5969 12.4031 45 24 45C35.5969 45 45 35.5969 45 24C45 12.4031 35.5969 3 24 3Z" fill="#004A98"/>
</svg>
