<svg width="32" height="32" viewBox="0 0 32 32" fill="none" xmlns="http://www.w3.org/2000/svg">
<path d="M20.6667 13.3333C21.1971 13.3333 21.7058 13.1226 22.0809 12.7475C22.456 12.3725 22.6667 11.8638 22.6667 11.3333C22.6667 10.8029 22.456 10.2942 22.0809 9.91912C21.7058 9.54405 21.1971 9.33333 20.6667 9.33333C20.1362 9.33333 19.6275 9.54405 19.2525 9.91912C18.8774 10.2942 18.6667 10.8029 18.6667 11.3333C18.6667 11.8638 18.8774 12.3725 19.2525 12.7475C19.6275 13.1226 20.1362 13.3333 20.6667 13.3333Z" fill="#004A98"/>
<path d="M4 6.66667C4 5.95942 4.28095 5.28115 4.78105 4.78105C5.28115 4.28095 5.95942 4 6.66667 4H25.3333C26.0406 4 26.7189 4.28095 27.219 4.78105C27.719 5.28115 28 5.95942 28 6.66667V25.3333C28 26.0406 27.719 26.7189 27.219 27.219C26.7189 27.719 26.0406 28 25.3333 28H6.66667C5.95942 28 5.28115 27.719 4.78105 27.219C4.28095 26.7189 4 26.0406 4 25.3333V6.66667ZM25.3333 6.66667H6.66667V17.2267L11.1667 13.6267C11.4032 13.4373 11.6971 13.3342 12 13.3342C12.3029 13.3342 12.5969 13.4373 12.8333 13.6267L18.5667 18.2133L20.3907 16.3907C20.6407 16.1407 20.9798 16.0003 21.3333 16.0003C21.6869 16.0003 22.026 16.1407 22.276 16.3907L25.3333 19.448V6.66667ZM6.66667 25.3333H25.3333V23.2187L21.3333 19.2187L19.6093 20.9427C19.3773 21.1748 19.0679 21.3132 18.7402 21.3314C18.4125 21.3496 18.0896 21.2463 17.8333 21.0413L12 16.3733L6.66667 20.64V25.3333Z" fill="#004A98"/>
</svg>
