<svg width="66" height="65" viewBox="0 0 66 65" fill="none" xmlns="http://www.w3.org/2000/svg">
<path d="M23.1192 39.9239C22.922 39.9239 22.7248 39.9526 22.5366 40.0133C21.4672 40.3585 20.3425 40.5798 19.1583 40.5798C17.9742 40.5798 16.8494 40.3585 15.7791 40.0133C15.591 39.9526 15.3946 39.9239 15.1974 39.9239C10.0762 39.9239 5.92798 44.0628 5.95521 49.1577C5.96676 51.3108 7.74836 53.0424 9.91614 53.0424H28.4005C30.5683 53.0424 32.3498 51.3108 32.3614 49.1577C32.3886 44.0628 28.2404 39.9239 23.1192 39.9239ZM19.1583 37.3002C23.5335 37.3002 27.0802 33.7763 27.0802 29.4291C27.0802 25.082 23.5335 21.558 19.1583 21.558C14.7831 21.558 11.2364 25.082 11.2364 29.4291C11.2364 33.7763 14.7831 37.3002 19.1583 37.3002ZM54.8067 11.0632H23.1192C20.9349 11.0632 19.1583 12.8875 19.1583 15.1291V18.9343C21.0909 18.9343 22.8799 19.4902 24.4395 20.3938V16.3106H53.4863V39.9239H48.2051V34.6765H37.6426V39.9239H31.3514C32.9275 41.2923 34.0844 43.0994 34.6266 45.1713H54.8067C56.9909 45.1713 58.7676 43.347 58.7676 41.1054V15.1291C58.7676 12.8875 56.9909 11.0632 54.8067 11.0632Z" fill="#004A98"/>
</svg>
