<svg width="65" height="65" viewBox="0 0 65 65" fill="none" xmlns="http://www.w3.org/2000/svg">
<path d="M54.3235 23.7826C54.9819 23.7826 55.5205 23.2541 55.5205 22.6082V18.6938C55.5205 18.048 54.9819 17.5195 54.3235 17.5195H52.3285V12.8223C52.3285 10.229 50.1839 8.125 47.5406 8.125H15.621C12.9776 8.125 10.833 10.229 10.833 12.8223V53.5319C10.833 56.1252 12.9776 58.2292 15.621 58.2292H47.5406C50.1839 58.2292 52.3285 56.1252 52.3285 53.5319V48.8346H54.3235C54.9819 48.8346 55.5205 48.3062 55.5205 47.6603V43.7459C55.5205 43.1001 54.9819 42.5716 54.3235 42.5716H52.3285V36.3086H54.3235C54.9819 36.3086 55.5205 35.7802 55.5205 35.1343V31.2199C55.5205 30.574 54.9819 30.0456 54.3235 30.0456H52.3285V23.7826H54.3235ZM47.5406 53.5319H15.621V12.8223H47.5406V53.5319ZM31.5808 33.1771C35.1019 33.1771 37.9647 30.3685 37.9647 26.9141C37.9647 23.4596 35.1019 20.651 31.5808 20.651C28.0596 20.651 25.1968 23.4596 25.1968 26.9141C25.1968 30.3685 28.0596 33.1771 31.5808 33.1771ZM22.6433 45.7031H40.5183C41.7552 45.7031 42.7527 44.8615 42.7527 43.8242V41.9453C42.7527 38.8334 39.7502 36.3086 36.0495 36.3086C34.9722 36.3086 34.1842 37.0915 31.5808 37.0915C28.8975 37.0915 28.2492 36.3086 27.112 36.3086C23.4113 36.3086 20.4089 38.8334 20.4089 41.9453V43.8242C20.4089 44.8615 21.4064 45.7031 22.6433 45.7031Z" fill="#004A98"/>
</svg>
