<svg width="66" height="65" viewBox="0 0 66 65" fill="none" xmlns="http://www.w3.org/2000/svg">
<path d="M56.2708 16.2501C49.2021 18.1459 40.9146 18.9584 33.25 18.9584C25.5854 18.9584 17.2979 18.1459 10.2292 16.2501L8.875 21.6667C13.9125 23.0209 19.7083 23.9147 25.125 24.3751V59.5834H30.5417V43.3334H35.9583V59.5834H41.375V24.3751C46.7917 23.9147 52.5875 23.0209 57.625 21.6667L56.2708 16.2501ZM33.25 16.2501C36.2292 16.2501 38.6667 13.8126 38.6667 10.8334C38.6667 7.85425 36.2292 5.41675 33.25 5.41675C30.2708 5.41675 27.8333 7.85425 27.8333 10.8334C27.8333 13.8126 30.2708 16.2501 33.25 16.2501Z" fill="#004A98"/>
</svg>
