<svg width="66" height="65" viewBox="0 0 66 65" fill="none" xmlns="http://www.w3.org/2000/svg">
<path d="M11.3337 17.9643C11.7128 17.8126 12.1678 17.6447 12.6959 17.4741C15.3214 16.6463 18.06 16.2332 20.8128 16.2499C23.5657 16.2332 26.3042 16.6463 28.9297 17.4741C29.4578 17.6447 29.9128 17.8126 30.292 17.9643V47.4309C27.2199 46.4948 24.0244 46.0265 20.8128 46.0416C16.8587 46.0416 13.6385 46.7132 11.3337 47.4309V17.9643ZM33.0003 13.2301C32.2148 12.8849 31.4121 12.5803 30.5953 12.3174C27.4316 11.3165 24.131 10.8157 20.8128 10.8332C16.6799 10.8332 13.3514 11.5672 11.0303 12.3174C10.1062 12.6136 9.20091 12.9654 8.31928 13.3709C7.99158 13.5225 7.66911 13.6851 7.35241 13.8584L7.2847 13.8963L7.26033 13.9099L7.2522 13.9153C7.24678 13.9207 6.58053 14.3134 7.24408 13.9207C6.83978 14.1604 6.50483 14.5012 6.27215 14.9096C6.03947 15.318 5.91707 15.7799 5.91699 16.2499V51.4582C5.91708 51.9363 6.04368 52.4057 6.28395 52.819C6.52422 53.2323 6.86959 53.5746 7.28497 53.8112C7.70036 54.0477 8.17096 54.1702 8.64898 54.166C9.12699 54.1618 9.59538 54.0312 10.0066 53.7874L9.99303 53.7955L10.0012 53.7928L10.0039 53.7901L10.1041 53.7359C10.2043 53.6818 10.3695 53.6005 10.597 53.4922C11.0574 53.2809 11.7616 52.983 12.6959 52.6797C15.3216 51.8528 18.0601 51.4407 20.8128 51.4582C23.5655 51.4407 26.3041 51.8528 28.9297 52.6797C29.645 52.9081 30.346 53.1794 31.0287 53.4922C31.2331 53.5869 31.4345 53.6881 31.6326 53.7955M31.6326 53.7955L31.6245 53.7928L31.6218 53.7901C32.4722 54.2911 33.5284 54.2911 34.3789 53.7901L34.4791 53.7359C34.5793 53.6818 34.7445 53.6005 34.972 53.4922C35.6547 53.1794 36.3556 52.9081 37.071 52.6797C39.6966 51.8528 42.4351 51.4407 45.1878 51.4582C47.9405 51.4407 50.6791 51.8528 53.3047 52.6797C54.02 52.9081 54.721 53.1794 55.4037 53.4922C55.6044 53.5854 55.8022 53.6847 55.9968 53.7901C56.4081 54.0333 56.8765 54.1634 57.3543 54.1671C57.8322 54.1708 58.3025 54.048 58.7175 53.8112C59.1326 53.5744 59.4776 53.232 59.7175 52.8187C59.9574 52.4055 60.0838 51.9361 60.0837 51.4582V16.2499C60.0836 15.7799 59.9612 15.318 59.7285 14.9096C59.4958 14.5012 59.1609 14.1604 58.7566 13.9207L58.7512 13.918L58.7403 13.9099L58.7132 13.8963L58.6482 13.8584C58.3316 13.685 58.0091 13.5224 57.6814 13.3709C56.8006 12.9656 55.8962 12.6138 54.973 12.3174C51.8085 11.3162 48.5069 10.8154 45.1878 10.8332C41.0576 10.8332 37.7264 11.5672 35.4053 12.3174C34.5883 12.5796 33.7856 12.8843 33.0003 13.2301M54.667 17.9643V47.4309C51.5949 46.4948 48.3994 46.0265 45.1878 46.0416C41.2337 46.0416 38.0134 46.7132 35.7087 47.4309V17.9643C36.0878 17.8126 36.5428 17.6447 37.071 17.4741C39.6964 16.6463 42.435 16.2332 45.1878 16.2499C47.9407 16.2332 50.6792 16.6463 53.3047 17.4741C53.8328 17.6447 54.2878 17.8126 54.667 17.9643ZM55.9941 18.5818L56.0076 18.5872H56.0049L55.9941 18.5818ZM55.9968 53.7901L56.0049 53.7955L55.9995 53.7901" fill="#004A98"/>
</svg>
