<svg width="48" height="48" viewBox="0 0 48 48" fill="none" xmlns="http://www.w3.org/2000/svg">
<g clip-path="url(#clip0_263_7537)">
<path d="M45.3333 31.5067L42.6667 30.6667C42.4775 30.0139 42.2182 29.3836 41.8933 28.7867L43.2267 26.3067C43.277 26.212 43.295 26.1035 43.2782 25.9977C43.2614 25.8918 43.2105 25.7944 43.1333 25.72L41.2 23.8133C41.1256 23.7361 41.0281 23.6853 40.9223 23.6685C40.8164 23.6516 40.708 23.6697 40.6133 23.72L38.1467 25.0533C37.5433 24.7123 36.9038 24.4395 36.24 24.24L35.4267 21.5733C35.3926 21.4739 35.3277 21.3879 35.2413 21.3279C35.155 21.268 35.0518 21.2372 34.9467 21.24H32.28C32.1755 21.2409 32.0741 21.275 31.9902 21.3373C31.9063 21.3996 31.8444 21.4869 31.8133 21.5867L31 24.2533C30.3316 24.4519 29.6876 24.7247 29.08 25.0667L26.6667 23.7333C26.572 23.683 26.4636 23.6649 26.3577 23.6818C26.2519 23.6986 26.1544 23.7495 26.08 23.8267L24 25.7467C23.9228 25.821 23.872 25.9185 23.8551 26.0244C23.8383 26.1302 23.8564 26.2387 23.9067 26.3333L25.24 28.76C24.9127 29.3651 24.6534 30.0045 24.4667 30.6667L21.8 31.48C21.7003 31.511 21.6129 31.573 21.5506 31.6568C21.4883 31.7407 21.4543 31.8422 21.4533 31.9467V34.6133C21.4543 34.7178 21.4883 34.8193 21.5506 34.9031C21.6129 34.987 21.7003 35.0489 21.8 35.08L24.4667 35.8933C24.6812 36.5686 24.972 37.2172 25.3333 37.8267L24 40.36C23.9497 40.4546 23.9316 40.5631 23.9485 40.6689C23.9653 40.7748 24.0162 40.8723 24.0933 40.9467L26.0267 42.88C26.101 42.9572 26.1985 43.008 26.3044 43.0249C26.4102 43.0417 26.5187 43.0236 26.6133 42.9733L29.1067 41.64C29.6957 41.9585 30.317 42.2133 30.96 42.4L31.7733 45.0667C31.8044 45.1664 31.8663 45.2537 31.9502 45.316C32.0341 45.3783 32.1355 45.4124 32.24 45.4133H34.9067C35.0111 45.4124 35.1126 45.3783 35.1965 45.316C35.2804 45.2537 35.3423 45.1664 35.3733 45.0667L36.1867 42.4C36.8253 42.213 37.4422 41.9582 38.0267 41.64L40.5467 42.9733C40.6413 43.0236 40.7498 43.0417 40.8556 43.0249C40.9615 43.008 41.059 42.9572 41.1333 42.88L43.0667 40.9467C43.1438 40.8723 43.1947 40.7748 43.2115 40.6689C43.2284 40.5631 43.2103 40.4546 43.16 40.36L41.8267 37.8533C42.1504 37.2652 42.4096 36.6438 42.6 36L45.2667 35.1867C45.3664 35.1556 45.4537 35.0937 45.516 35.0098C45.5784 34.9259 45.6124 34.8245 45.6133 34.72V32C45.6231 31.8989 45.6014 31.7973 45.5513 31.7091C45.5012 31.6208 45.4251 31.5501 45.3333 31.5067ZM33.56 37.8C32.6847 37.7921 31.8313 37.5257 31.107 37.0342C30.3828 36.5427 29.8199 35.8481 29.4892 35.0377C29.1585 34.2273 29.0747 33.3372 29.2483 32.4793C29.422 31.6214 29.8454 30.8339 30.4652 30.2159C31.0851 29.5979 31.8738 29.1769 32.7322 29.0058C33.5906 28.8347 34.4804 28.9212 35.2899 29.2543C36.0993 29.5874 36.7922 30.1523 37.2815 30.8781C37.7708 31.6038 38.0347 32.458 38.04 33.3333C38.0418 33.9186 37.9278 34.4985 37.7046 35.0396C37.4814 35.5807 37.1535 36.0723 36.7396 36.4862C36.3257 36.9001 35.8341 37.2281 35.293 37.4513C34.7519 37.6744 34.172 37.7884 33.5867 37.7867L33.56 37.8Z" fill="#004A98"/>
<path d="M14.4667 36.5867C15.0239 36.467 15.5365 36.1938 15.9465 35.7979C16.3565 35.4021 16.6476 34.8994 16.7867 34.3467C17.6396 34.1224 18.4806 33.8554 19.3067 33.5467V31.9333C19.3123 31.6845 19.3527 31.4376 19.4267 31.2C18.4863 31.6102 17.5197 31.9576 16.5333 32.24C16.2456 31.6705 15.786 31.2059 15.2195 30.9122C14.6531 30.6184 14.0086 30.5103 13.3773 30.6032C12.746 30.6962 12.1599 30.9854 11.7022 31.4299C11.2444 31.8744 10.9381 32.4517 10.8267 33.08H10.2267C7.89402 30.3721 6.54132 26.9574 6.38668 23.3867C8.1785 20.8753 10.443 18.7376 13.0533 17.0933C13.4417 17.4906 13.9336 17.7712 14.4733 17.9031C15.013 18.0351 15.5788 18.0132 16.1067 17.84C17.7304 20.4703 19.8335 22.7724 22.3067 24.6267C22.3941 24.4743 22.4968 24.3314 22.6133 24.2L23.8 23.04C21.3928 21.2841 19.3579 19.068 17.8133 16.52C18.1156 16.0408 18.2773 15.4865 18.28 14.92C18.28 14.8267 18.28 14.7333 18.28 14.6267C23.1675 12.9954 28.4546 13.0095 33.3333 14.6667C32.9747 16.2036 32.461 17.7002 31.8 19.1333C31.9358 19.1 32.074 19.0777 32.2133 19.0667H34.1467C34.6358 17.8982 35.037 16.6949 35.3467 15.4667C35.92 15.72 36.4667 16.0133 37.0267 16.32C37.8793 18.268 38.3327 20.3671 38.36 22.4933L39.6934 21.8133C40.0717 21.6142 40.4925 21.5091 40.92 21.5067H41.0267C40.8004 17.8918 39.5274 14.4208 37.3628 11.5168C35.1981 8.61284 32.2354 6.40135 28.8358 5.1519C25.4361 3.90246 21.7464 3.66905 18.2164 4.48011C14.6865 5.29118 11.4687 7.11169 8.95535 9.71973C6.44202 12.3278 4.74173 15.6107 4.06173 19.1682C3.38173 22.7258 3.75141 26.4043 5.1257 29.7555C6.49998 33.1066 8.81951 35.9855 11.8015 38.0413C14.7835 40.097 18.2992 41.2409 21.92 41.3333C21.7169 40.6885 21.7743 39.9897 22.08 39.3867L22.4533 38.68H22.36C19.5914 38.6822 16.8703 37.9606 14.4667 36.5867ZM22.3467 6.66666C24.4895 6.6699 26.6098 7.10353 28.5818 7.94181C30.5539 8.7801 32.3374 10.006 33.8267 11.5467C33.8267 11.88 33.8267 12.2267 33.72 12.56C28.3646 10.795 22.5765 10.8465 17.2533 12.7067C16.8008 12.3194 16.2444 12.0737 15.6533 12C15.2964 10.898 15.0245 9.77024 14.84 8.62666C17.1419 7.36325 19.721 6.68986 22.3467 6.66666ZM12.88 9.81333C13.0524 10.6776 13.2705 11.5321 13.5333 12.3733C13.0972 12.6464 12.7375 13.0258 12.4879 13.4759C12.2384 13.926 12.1072 14.432 12.1067 14.9467C12.1067 14.9467 12.1067 15.08 12.1067 15.1467C10.0921 16.4142 8.26155 17.9531 6.66668 19.72C7.41363 15.7521 9.63312 12.2133 12.88 9.81333Z" fill="#004A98"/>
</g>
<defs>
<clipPath id="clip0_263_7537">
<rect width="48" height="48" fill="white"/>
</clipPath>
</defs>
</svg>
