<svg width="48" height="48" viewBox="0 0 48 48" fill="none" xmlns="http://www.w3.org/2000/svg">
<path d="M4 10C4 8.93913 4.42143 7.92172 5.17157 7.17157C5.92172 6.42143 6.93913 6 8 6H40C41.0609 6 42.0783 6.42143 42.8284 7.17157C43.5786 7.92172 44 8.93913 44 10V32C44 33.0609 43.5786 34.0783 42.8284 34.8284C42.0783 35.5786 41.0609 36 40 36H26V40H32C32.5304 40 33.0391 40.2107 33.4142 40.5858C33.7893 40.9609 34 41.4696 34 42C34 42.5304 33.7893 43.0391 33.4142 43.4142C33.0391 43.7893 32.5304 44 32 44H16C15.4696 44 14.9609 43.7893 14.5858 43.4142C14.2107 43.0391 14 42.5304 14 42C14 41.4696 14.2107 40.9609 14.5858 40.5858C14.9609 40.2107 15.4696 40 16 40H22V36H8C6.93913 36 5.92172 35.5786 5.17157 34.8284C4.42143 34.0783 4 33.0609 4 32V10ZM40 32V10H8V32H40Z" fill="#004A98"/>
</svg>
