<svg width="48" height="48" viewBox="0 0 48 48" fill="none" xmlns="http://www.w3.org/2000/svg">
<path d="M17 11C15.8954 11 15 11.8954 15 13C15 14.1046 15.8954 15 17 15C18.1046 15 19 14.1046 19 13C19 11.8954 18.1046 11 17 11Z" fill="#004A98"/>
<path d="M15 27C15 25.8954 15.8954 25 17 25C18.1046 25 19 25.8954 19 27C19 28.1046 18.1046 29 17 29C15.8954 29 15 28.1046 15 27Z" fill="#004A98"/>
<path d="M17 18C15.8954 18 15 18.8954 15 20C15 21.1046 15.8954 22 17 22C18.1046 22 19 21.1046 19 20C19 18.8954 18.1046 18 17 18Z" fill="#004A98"/>
<path d="M22 13C22 11.8954 22.8954 11 24 11C25.1046 11 26 11.8954 26 13C26 14.1046 25.1046 15 24 15C22.8954 15 22 14.1046 22 13Z" fill="#004A98"/>
<path d="M24 25C22.8954 25 22 25.8954 22 27C22 28.1046 22.8954 29 24 29C25.1046 29 26 28.1046 26 27C26 25.8954 25.1046 25 24 25Z" fill="#004A98"/>
<path d="M29 27C29 25.8954 29.8954 25 31 25C32.1046 25 33 25.8954 33 27C33 28.1046 32.1046 29 31 29C29.8954 29 29 28.1046 29 27Z" fill="#004A98"/>
<path d="M24 18C22.8954 18 22 18.8954 22 20C22 21.1046 22.8954 22 24 22C25.1046 22 26 21.1046 26 20C26 18.8954 25.1046 18 24 18Z" fill="#004A98"/>
<path d="M12.5 4C10.0147 4 8 6.01472 8 8.5V41.5C8 42.3284 8.67158 43 9.5 43H38.5056C39.334 43 40.0056 42.3284 40.0056 41.5V23.4986C40.0056 21.0134 37.9908 18.9986 35.5056 18.9986H33V8.5C33 6.01472 30.9852 4 28.5 4H12.5ZM11 8.5C11 7.67158 11.6716 7 12.5 7H28.5C29.3284 7 30 7.67158 30 8.5V20.4986C30 21.327 30.6716 21.9986 31.5 21.9986H35.5056C36.334 21.9986 37.0056 22.6702 37.0056 23.4986V40H33V34.5C33 33.6716 32.3284 33 31.5 33H16.5C15.6716 33 15 33.6716 15 34.5V40H11V8.5ZM30 36V40H25.5V36H30ZM22.5 36V40H18V36H22.5Z" fill="#004A98"/>
</svg>
