<svg width="48" height="48" viewBox="0 0 48 48" fill="none" xmlns="http://www.w3.org/2000/svg">
<g clip-path="url(#clip0_263_7423)">
<path d="M10 18C10.5304 18 11.0391 18.2107 11.4142 18.5858C11.7893 18.9609 12 19.4696 12 20C15.1423 19.9954 18.194 21.0525 20.66 23H25C27.664 23 30.06 24.158 31.706 25.998L38 26C39.8905 25.9995 41.7425 26.5349 43.3411 27.5441C44.9397 28.5533 46.2195 29.995 47.032 31.702C42.302 37.944 34.644 42 26 42C20.42 42 15.7 40.794 11.88 38.684C11.7401 39.0701 11.4845 39.4037 11.148 39.6392C10.8116 39.8747 10.4107 40.0007 10 40H4C3.46957 40 2.96086 39.7893 2.58579 39.4142C2.21071 39.0391 2 38.5304 2 38V20C2 19.4696 2.21071 18.9609 2.58579 18.5858C2.96086 18.2107 3.46957 18 4 18H10ZM12.002 24L12 34.042L12.09 34.108C15.68 36.628 20.356 38 26 38C32.008 38 37.598 35.688 41.67 31.74L41.936 31.474L41.696 31.274C40.7516 30.5343 39.6068 30.0954 38.41 30.014L38 30L33.776 29.998C33.922 30.642 34 31.312 34 32V34H16V30L29.58 29.998L29.512 29.842C29.1287 29.0411 28.5391 28.3566 27.8038 27.8589C27.0685 27.3612 26.214 27.0682 25.328 27.01L25 27H19.14C18.2106 26.0495 17.1005 25.2944 15.875 24.7792C14.6495 24.264 13.3314 23.999 12.002 24ZM8 22H6V36H8V22ZM27.292 7.15L28 7.86L28.708 7.152C29.1716 6.68444 29.723 6.31305 30.3306 6.05917C30.9381 5.80528 31.5898 5.67389 32.2482 5.67254C32.9067 5.67119 33.5589 5.79991 34.1675 6.05131C34.7761 6.30271 35.329 6.67183 35.7945 7.1375C36.26 7.60316 36.629 8.15618 36.8802 8.76482C37.1315 9.37346 37.26 10.0257 37.2585 10.6842C37.2569 11.3426 37.1254 11.9943 36.8713 12.6018C36.6172 13.2092 36.2457 13.7605 35.778 14.224L28 22L20.22 14.22C19.7524 13.7564 19.3811 13.205 19.1272 12.5974C18.8733 11.9899 18.7419 11.3382 18.7405 10.6798C18.7392 10.0213 18.8679 9.36908 19.1193 8.76051C19.3707 8.15194 19.7398 7.59902 20.2055 7.13349C20.6712 6.66796 21.2242 6.29899 21.8328 6.04777C22.4415 5.79654 23.0937 5.668 23.7522 5.66954C24.4106 5.67107 25.0623 5.80265 25.6698 6.05671C26.2772 6.31077 26.8285 6.68231 27.292 7.15ZM23.052 9.98C22.8862 10.1448 22.7835 10.3626 22.7615 10.5953C22.7396 10.828 22.7999 11.0611 22.932 11.254L23.048 11.392L28 16.34L32.952 11.392C33.1177 11.2265 33.22 11.0082 33.2412 10.775C33.2624 10.5418 33.2011 10.3086 33.068 10.116L32.952 9.976C32.7863 9.81065 32.5678 9.70868 32.3347 9.68785C32.1015 9.66702 31.8684 9.72865 31.676 9.862L31.536 9.978L27.998 13.514L24.464 9.974L24.328 9.862C24.1354 9.7289 23.9022 9.66761 23.669 9.68881C23.4358 9.71 23.2175 9.81435 23.052 9.98Z" fill="#004A98"/>
</g>
<defs>
<clipPath id="clip0_263_7423">
<rect width="48" height="48" fill="white"/>
</clipPath>
</defs>
</svg>
