<svg width="48" height="48" viewBox="0 0 48 48" fill="none" xmlns="http://www.w3.org/2000/svg">
<path d="M4.23177 44.5348L4 44.3019V42.0999C4 39.8614 4.02181 39.6753 4.31029 39.4528C4.4019 39.3821 5.02339 39.3551 6.59676 39.3532L8.75742 39.3507V34.1478V28.9448L8.51148 28.7109C8.16731 28.3835 7.63298 27.6136 7.33414 27.0146C6.44772 25.2378 6.56986 22.8173 7.62963 21.1591C8.6073 19.6293 10.2471 18.5601 11.929 18.3558L12.3651 18.3028L16.3098 14.3486L20.2545 10.3944L20.2559 9.9161C20.2608 8.22737 21.146 6.46425 22.5625 5.32212C25.8753 2.65096 30.8756 4.21597 32.149 8.32257C32.2638 8.69273 32.3393 9.20493 32.3737 9.84612L32.4256 10.812L35.981 14.8648C39.136 18.4611 39.5736 18.9296 39.8662 19.0247C40.9899 19.3896 41.4584 19.7095 41.954 20.4502C42.4573 21.2024 42.5351 21.5748 42.5351 23.2316V24.6534L42.8897 24.8424C43.3178 25.0706 43.9618 25.7371 44.1918 26.1901C44.5767 26.948 44.5966 27.191 44.5966 31.1261V34.8172L44.402 35.0128C44.0672 35.3491 43.7944 35.2842 42.2236 34.4942C41.4375 34.0988 40.7477 33.6998 40.6782 33.6002C40.5704 33.4455 40.5528 33.0717 40.5528 30.9287V28.4371H39.2081H37.8634L37.8404 30.9382C37.8185 33.3096 37.8091 33.4484 37.6587 33.6159C37.5715 33.7131 36.8672 34.1112 36.0936 34.5005C34.5589 35.2727 34.2821 35.341 33.9827 35.0209L33.8075 34.8335L33.8302 30.8586L33.8528 26.8837L34.073 26.4113C34.3741 25.7653 34.7614 25.3134 35.3207 24.9551L35.7921 24.6532L35.7938 23.7288L35.7954 22.8045L31.5526 19.4428C29.219 17.5939 27.2773 16.1013 27.2378 16.1258C27.1983 16.1504 26.8988 16.1756 26.5723 16.1818L25.9786 16.1931L22.4104 19.7859L18.8422 23.3786L18.8468 24.2548C18.8518 25.2314 18.7503 25.8366 18.4528 26.6049C18.2171 27.2134 17.533 28.2816 17.1292 28.6718L16.845 28.9463V34.1485V39.3507H23.7469H30.6488L30.8434 39.5462L31.038 39.7417L31.0355 42.0356C31.0328 44.4448 31.0277 44.4818 30.6666 44.675C30.5369 44.7444 27.2213 44.7677 17.4785 44.7677H4.46354L4.23177 44.5348ZM29.6901 42.0592V40.7049H17.519H5.34794V42.0592V43.4134H17.519H29.6901V42.0592ZM15.4971 34.6023C15.4971 30.1109 15.4896 29.8571 15.3583 29.9124C13.6154 30.6464 11.8983 30.6474 10.2441 29.9153C10.1128 29.8572 10.1054 30.1098 10.1054 34.6023V39.3507H12.8012H15.4971V34.6023ZM11.9504 37.9359C11.8532 37.9195 11.7015 37.8141 11.6135 37.7015C11.4613 37.5072 11.4533 37.3838 11.4533 35.2338V32.9705L11.6479 32.775C11.9688 32.4527 12.4861 32.5169 12.6852 32.9038C12.8406 33.2057 12.8543 37.2895 12.7009 37.5925C12.5909 37.81 12.2174 37.9809 11.9504 37.9359ZM35.8339 33.1193L36.509 32.7829V30.1471C36.509 27.623 36.5158 27.5039 36.6673 27.3405C36.7543 27.2466 36.9417 27.1482 37.0836 27.1218C37.2255 27.0954 38.2773 27.0848 39.4209 27.0982C41.463 27.1222 41.5034 27.1259 41.6807 27.304C41.8603 27.4845 41.8612 27.4983 41.884 30.1526L41.9069 32.8197L42.5364 33.1377C42.8826 33.3126 43.1861 33.4557 43.2108 33.4557C43.2354 33.4557 43.2452 32.0487 43.2323 30.329C43.211 27.4592 43.1969 27.1794 43.0614 26.9235C42.8554 26.5343 42.4729 26.1437 42.099 25.9407C41.7966 25.7764 41.668 25.7673 39.3373 25.7442C36.6337 25.7175 36.4156 25.7466 35.8574 26.2088C35.698 26.3408 35.4672 26.6542 35.3445 26.9052L35.1215 27.3616L35.0958 30.4087C35.0817 32.0846 35.0901 33.4557 35.1145 33.4557C35.1388 33.4557 35.4626 33.3044 35.8339 33.1193ZM14.0724 28.9481C15.6565 28.4803 16.8949 27.2251 17.3668 25.6091C17.5537 24.9694 17.5537 23.7793 17.3668 23.1396C16.8263 21.2886 15.387 20.0022 13.4849 19.67C12.0472 19.4189 10.3498 20.0229 9.3239 21.1506C8.47302 22.086 8.08884 23.0888 8.08884 24.3743C8.08884 25.6581 8.47317 26.6628 9.32055 27.5944C10.5045 28.8958 12.4105 29.4388 14.0724 28.9481ZM12.3139 27.7159C11.2873 27.5952 10.2246 26.81 9.77165 25.8375C8.62195 23.3692 10.6031 20.6788 13.3024 21.0429C14.5303 21.2085 15.6453 22.1726 16.0115 23.3853C16.1631 23.8876 16.1631 24.8611 16.0115 25.3634C15.5329 26.9484 14.0127 27.9155 12.3139 27.7159ZM13.6347 26.2099C14.8863 25.6712 15.2001 23.9289 14.2224 22.9466C13.3529 22.0731 11.8317 22.199 11.1628 23.1998C10.0045 24.9328 11.7273 27.0308 13.6347 26.2099ZM41.1864 23.1197C41.1857 21.9712 41.1699 21.831 40.9995 21.4634C40.4231 20.2198 38.7651 19.9236 37.7826 20.8886C37.2566 21.4053 37.1878 21.6465 37.1573 23.0798L37.1297 24.3743H39.1584H41.1872L41.1864 23.1197ZM23.7404 15.6008C22.363 14.9504 21.229 13.747 20.6841 12.3576L20.5483 12.0113L17.3884 15.1852C15.6504 16.9309 14.2285 18.382 14.2285 18.4098C14.2285 18.4377 14.3872 18.5006 14.5812 18.5497C15.0821 18.6764 16.0336 19.1883 16.6011 19.6362C17.1809 20.0938 17.7801 20.8101 18.1216 21.4538L18.3711 21.9242L21.3708 18.9113L24.3704 15.8984L23.7404 15.6008ZM17.0768 18.7245C16.8202 18.4667 16.7889 18.2607 16.9571 17.9377C17.0187 17.8194 17.7096 17.0863 18.4924 16.3086C19.8184 14.9914 19.9358 14.8946 20.2077 14.8946C20.5893 14.8946 20.8888 15.1811 20.8888 15.546C20.8888 15.7781 20.7188 15.9771 19.3207 17.3818C17.5844 19.1262 17.5169 19.1666 17.0768 18.7245ZM36.1656 20.8493C36.4038 20.3574 37.0276 19.6963 37.5136 19.4208C37.7949 19.2613 37.916 19.1486 37.8766 19.0832C37.7642 18.8969 32.0476 12.4251 31.9955 12.4251C31.9668 12.4251 31.8455 12.6253 31.7261 12.8699C31.2725 13.7991 30.3538 14.7969 29.479 15.3104C29.2341 15.4542 29.0298 15.603 29.025 15.6412C29.0168 15.7054 35.8602 21.177 35.958 21.1845C35.982 21.1864 36.0755 21.0355 36.1656 20.8493ZM27.6682 14.6438C29.2171 14.1997 30.5046 12.8565 30.9129 11.2585C31.059 10.687 31.0758 9.66506 30.9491 9.06336C30.4129 6.51678 27.738 4.84506 25.2304 5.48938C22.95 6.07534 21.4842 8.06627 21.6245 10.387C21.8099 13.4549 24.7044 15.4935 27.6682 14.6438ZM25.3621 13.3466C24.1693 12.9521 23.3236 12.03 23.0584 10.8352C22.645 8.97216 23.808 7.18113 25.6805 6.79749C28.1298 6.29567 30.27 8.64614 29.5456 11.0423C29.2447 12.0376 28.6605 12.7137 27.7078 13.1694C27.2591 13.384 27.0949 13.4183 26.4392 13.4348C25.9715 13.4466 25.5631 13.4131 25.3621 13.3466ZM27.1528 11.9407C28.496 11.3298 28.752 9.58788 27.6457 8.58597C27.3344 8.30407 26.6981 8.04375 26.3202 8.04375C25.9454 8.04375 25.3062 8.30393 25.0015 8.58053C23.6138 9.84004 24.4611 12.1115 26.316 12.1047C26.626 12.1036 26.9223 12.0455 27.1528 11.9407Z" fill="#004A98"/>
</svg>
