<svg width="48" height="48" viewBox="0 0 48 48" fill="none" xmlns="http://www.w3.org/2000/svg">
<path d="M16.0312 22.125H32.0625C32.0812 22.125 32.1047 22.125 32.1234 22.1203C32.3297 22.0875 32.4656 21.8953 32.4328 21.6891L30.5484 10.0641C30.5203 9.88125 30.3609 9.75 30.1781 9.75H17.9156C17.7328 9.75 17.5734 9.88125 17.5453 10.0641L15.6609 21.6891C15.6562 21.7078 15.6562 21.7312 15.6562 21.75C15.6562 21.9563 15.825 22.125 16.0312 22.125ZM20.3063 12.9375H27.7828L28.7531 18.9375H19.3312L20.3063 12.9375ZM20.4234 26.1891C20.3953 26.0063 20.2359 25.875 20.0531 25.875H7.79062C7.60781 25.875 7.44844 26.0063 7.42031 26.1891L5.53594 37.8141C5.53125 37.8328 5.53125 37.8563 5.53125 37.875C5.53125 38.0812 5.7 38.25 5.90625 38.25H21.9375C21.9562 38.25 21.9797 38.25 21.9984 38.2453C22.2047 38.2125 22.3406 38.0203 22.3078 37.8141L20.4234 26.1891ZM9.21094 35.0625L10.1812 29.0625H17.6578L18.6281 35.0625H9.21094ZM42.4641 37.8141L40.5797 26.1891C40.5516 26.0063 40.3922 25.875 40.2094 25.875H27.9469C27.7641 25.875 27.6047 26.0063 27.5766 26.1891L25.6922 37.8141C25.6875 37.8328 25.6875 37.8563 25.6875 37.875C25.6875 38.0812 25.8563 38.25 26.0625 38.25H42.0938C42.1125 38.25 42.1359 38.25 42.1547 38.2453C42.3563 38.2125 42.4969 38.0203 42.4641 37.8141ZM29.3672 35.0625L30.3375 29.0625H37.8141L38.7844 35.0625H29.3672Z" fill="#004A98"/>
</svg>
