<svg width="48" height="48" viewBox="0 0 48 48" fill="none" xmlns="http://www.w3.org/2000/svg">
<path d="M16.8881 29.4824C16.7425 29.4824 16.5968 29.5036 16.4579 29.5484C15.6681 29.8033 14.8376 29.9667 13.9631 29.9667C13.0887 29.9667 12.2581 29.8033 11.4677 29.5484C11.3288 29.5036 11.1838 29.4824 11.0381 29.4824C7.25635 29.4824 4.19303 32.5388 4.21314 36.3011C4.22167 37.8911 5.53731 39.1699 7.13813 39.1699H20.7881C22.3889 39.1699 23.7046 37.8911 23.7131 36.3011C23.7332 32.5388 20.6699 29.4824 16.8881 29.4824ZM13.9631 27.5449C17.194 27.5449 19.8131 24.9426 19.8131 21.7324C19.8131 18.5222 17.194 15.9199 13.9631 15.9199C10.7322 15.9199 8.11313 18.5222 8.11313 21.7324C8.11313 24.9426 10.7322 27.5449 13.9631 27.5449ZM40.2881 8.16986H16.8881C15.2751 8.16986 13.9631 9.51703 13.9631 11.1724V13.9824C15.3903 13.9824 16.7114 14.3929 17.8631 15.0601V12.0449H39.3131V29.4824H35.4131V25.6074H27.6131V29.4824H22.9672C24.1311 30.4929 24.9855 31.8273 25.3858 33.3574H40.2881C41.9011 33.3574 43.213 32.0102 43.213 30.3548V11.1724C43.213 9.51703 41.9011 8.16986 40.2881 8.16986Z" fill="#004A98"/>
</svg>
